<svg xmlns="http://www.w3.org/2000/svg" enable-background="new 0 0 96 96" viewBox="0 0 96 96"><path d="M50.9435 17.6857c0 3.99-3.24 7.23-7.23 7.23-2.4585 0-4.2819-.7391-5.89-3.81h3.6699c-.1582-.7023.9378-5.5714-3.6499-7.62l.1-.14c1.38-1.83 3.4801-2.88 5.77-2.88C47.7035 10.4657 50.9435 13.7057 50.9435 17.6857zM21.9995 91.7566c-10.9795 0-20.2637-3.166-20.876-3.3789l.6582-1.8887c.2314.0801 23.3584 7.9541 39.3613-1.2393 9.9756-5.7314 15.8896-3.7988 21.1064-2.0928 6.2537 2.0431 7.3509 1.5716 10.9121-.0381 4.5303-2.0508 10.1699-4.6025 19.6777 5.2422l-1.4395 1.3887c-8.5264-8.8281-13.0459-6.7861-17.4141-4.8086-11.8865 5.3723-15.5227-7.335-31.8467 2.043C35.8267 90.6101 28.606 91.7566 21.9995 91.7566zM32.2104 79.0056c-17.9375 0-30.9014-4.3652-31.083-4.4277l.6504-1.8916c.252.0874 25.499 8.5674 54.1631 1.5352 12.4341-3.1117 29.3866-6.6014 39.5801 1.7021l-1.2637 1.5508c-9.5021-7.7401-26.6085-4.121-37.8398-1.3115C47.8687 78.2615 39.6147 79.0056 32.2104 79.0056zM40.7495 67.3918c-29.1572-8.0947-39.3564-3.8979-39.4561-3.855L.479 61.7102c.4258-.1919 10.7578-4.5874 40.8057 3.7549 5.2793 1.4648 12.6592 2.2939 22.9629-4.3691.3965-.2388 9.1621-5.3564 19.7793.0742 1.626.832 5.8906 1.7778 10.3965-.5957l.9316 1.7695c-4.543 2.3931-9.5303 1.9922-12.2383.6064-9.6406-4.9297-17.7314-.2051-17.8125-.1567C55.9959 68.8143 48.4126 69.5191 40.7495 67.3918z"/><path d="M35.7235 53.9457c-1.59 2.79-2.7999 5.37-3.59 7.17-8.4346-1.863-19.3466-3.5141-27.9401-2.34C8.2235 49.6157 20.9136 26.2357 35.7235 53.9457zM71.1335 56.8757c-9.652 1.1693-12.3212 7.61-22.9 7.61-4.2996 0-6.0778-1.044-14.1-2.92 4.21-9.44 19.1399-37.88 36.1399-10.05C70.9932 52.6911 70.7608 53.6346 71.1335 56.8757zM94.6935 58.1757l-1.2001.63c-3.2589 1.7004-6.8119 1.4821-8.5599.58-4.1175-2.0999-8.4249-2.8937-11.9-2.67-.22-2.12-.3599-3.43-.45-4.24-.12-1.11.25-2.21 1.02-3.02 5.28-5.54 12.49-9.0699 19.84-1.14C93.4435 48.3157 95.6436 52.2257 94.6935 58.1757zM13.0729 19.1095c0-2.9329 2.9625-4.9821 5.7531-3.8251.4993-3.4982 3.5061-6.179 7.1206-6.179 3.7341 0 6.8058 2.8661 7.1641 6.5168 2.681-1.7497 6.3826.1414 6.3826 3.4873C30.05 19.1095 22.5319 19.1095 13.0729 19.1095zM66.7893 31.2602c0-2.4928 2.518-4.2346 4.8899-3.2512.4244-2.9733 2.98-5.2519 6.0523-5.2519 3.1739 0 5.7847 2.4361 6.0892 5.539 2.2788-1.4872 5.425.1202 5.425 2.9641C81.2193 31.2602 74.8291 31.2602 66.7893 31.2602z"/><path d="M51.1935,38.1857l-0.12,0.14c-3.71,1.27-7.02,4.14-9.8301,7.5h-4.0999c0-1.94,1.5699-3.53,3.51-3.53
		c0.49,0,0.95,0.11,1.3799,0.28c0.42-2.97,2.98-5.25,6.05-5.25C49.2235,37.3257,50.2834,37.6357,51.1935,38.1857z"/><rect width="2" height="4.125" x="42.717" y="4.243"/><rect width="4.126" height="2" x="35.963" y="6.831" transform="rotate(59.994 38.025 7.831)"/><rect width="2" height="4.126" x="32.86" y="21.317" transform="rotate(60.007 33.86 23.38)"/><rect width="2" height="4.126" x="37.026" y="25.483" transform="rotate(29.991 38.027 27.55)"/><rect width="2" height="4.126" x="42.717" y="27.009"/><rect width="4.125" height="2" x="47.346" y="26.546" transform="rotate(60 49.412 27.549)"/><rect width="4.126" height="2" x="51.512" y="22.38" transform="rotate(29.991 53.576 23.383)"/><rect width="4.126" height="2" x="53.038" y="16.689"/><rect width="2" height="4.126" x="52.575" y="9.935" transform="rotate(60.007 53.573 11.997)"/><rect width="2" height="4.126" x="48.408" y="5.768" transform="rotate(29.991 49.41 7.834)"/></svg>